<?xml version="1.0" standalone="no"?>
<!DOCTYPE svg PUBLIC "-//W3C//DTD SVG 20010904//EN"
 "http://www.w3.org/TR/2001/REC-SVG-20010904/DTD/svg10.dtd">
<svg version="1.0" xmlns="http://www.w3.org/2000/svg"
 width="1280.000000pt" height="960.000000pt" viewBox="0 0 1280.000000 960.000000"
 fill="#d0d0d0"
 preserveAspectRatio="xMidYMid meet">
<metadata>
Created by potrace 1.15, written by Peter Selinger 2001-2017
</metadata>
<g transform="translate(0.000000,960.000000) scale(0.100000,-0.100000)"
 stroke="none">
<path d="M8549 9573 c-14 -16 -51 -63 -83 -106 -80 -109 -210 -258 -363 -417
l-130 -135 14 -115 c18 -146 12 -267 -16 -342 -38 -100 -156 -194 -325 -259
-189 -73 -328 -94 -562 -84 l-170 7 -30 -25 c-16 -13 -57 -38 -91 -55 -34 -18
-64 -36 -67 -41 -8 -13 75 -20 393 -31 291 -11 385 -20 466 -46 75 -24 184
-84 197 -108 6 -11 17 -55 24 -97 8 -42 39 -148 70 -235 93 -263 133 -391 149
-477 9 -45 19 -98 23 -117 l8 -35 27 68 c25 61 28 84 31 210 4 162 22 239 123
547 l58 175 165 47 c91 26 212 55 270 64 163 24 174 27 178 46 2 12 -6 20 -30
25 -23 6 -37 18 -47 40 -8 18 -21 35 -30 39 -9 4 -86 10 -171 14 -160 7 -200
17 -200 49 0 11 19 65 42 122 39 96 43 111 43 194 0 85 -2 96 -40 175 -39 83
-40 87 -40 195 1 161 37 299 120 465 36 72 43 104 24 116 -8 5 -10 30 -5 80 3
41 4 74 3 74 -2 0 -14 -12 -28 -27z"/>
<path d="M10597 8684 c-5 -5 -153 -12 -330 -16 -449 -9 -567 -30 -876 -156
l-166 -67 -160 -1 c-124 -1 -171 -5 -210 -19 -61 -21 -175 -86 -175 -99 0 -9
55 -7 313 14 133 10 273 -1 336 -26 51 -20 88 -64 96 -112 3 -20 8 -51 11 -69
2 -17 33 -73 67 -125 83 -123 261 -350 305 -389 l36 -32 8 23 c7 19 13 22 44
17 l36 -6 -7 53 c-3 31 -2 57 3 60 16 10 97 -51 152 -115 83 -95 149 -159 166
-159 12 0 13 9 8 51 -6 45 -4 53 19 77 l26 28 -21 34 c-14 24 -22 53 -23 92
-1 48 -6 62 -33 92 -17 20 -36 55 -42 78 -12 47 -77 215 -122 317 -27 61 -28
65 -11 75 10 6 115 54 233 106 302 136 442 204 463 228 18 20 18 21 -4 32 -27
15 -131 25 -142 14z"/>
<path d="M6146 7680 c-309 -211 -530 -399 -575 -487 -46 -91 -39 -150 35 -315
24 -54 44 -111 44 -127 0 -25 -7 -31 -57 -54 -83 -37 -201 -56 -406 -67 -230
-12 -397 -3 -397 20 0 5 43 41 94 80 115 84 141 121 95 133 -19 5 -21 11 -16
48 l5 42 -51 -8 c-101 -14 -96 -16 -83 38 4 18 2 27 -6 27 -7 0 -77 -36 -157
-79 -227 -124 -410 -198 -533 -215 -29 -4 -60 -17 -78 -32 -39 -33 -82 -125
-114 -246 -54 -199 -151 -415 -210 -465 -40 -34 -176 -98 -252 -118 -43 -12
-140 -19 -368 -26 -171 -5 -334 -13 -364 -19 -30 -5 -79 -24 -110 -42 -31 -18
-77 -40 -101 -48 -124 -42 -19 -54 343 -39 358 14 431 7 600 -58 94 -37 104
-54 82 -141 -9 -37 -37 -112 -62 -167 -92 -200 -113 -258 -123 -344 -24 -187
28 -475 122 -681 47 -104 76 -193 103 -318 36 -167 47 -171 63 -27 6 48 13 90
16 93 3 3 19 -7 35 -23 16 -16 32 -26 36 -23 3 4 0 65 -6 137 -13 142 -9 171
21 171 26 0 36 30 49 150 11 114 22 144 50 137 29 -8 37 11 45 98 8 102 12
115 34 115 16 0 18 12 17 138 -1 133 0 140 35 238 57 159 121 296 154 332 24
26 46 37 110 53 44 11 143 40 220 64 187 59 315 90 460 115 66 10 130 22 142
26 37 10 34 31 -8 65 -39 31 -40 32 -18 43 33 16 34 34 4 46 -20 7 -81 6 -214
-6 -102 -9 -245 -14 -317 -12 -113 2 -135 6 -153 22 -42 39 -21 140 65 306 73
140 142 240 184 265 31 18 51 20 170 19 164 -2 238 -19 335 -76 227 -135 381
-172 710 -172 280 0 421 23 705 116 188 61 227 87 133 89 -70 1 -96 12 -111
42 -8 16 -23 32 -35 36 -12 5 -105 11 -207 15 -102 4 -193 9 -202 12 -27 8
-22 29 35 149 46 98 52 117 52 175 0 81 -22 115 -101 160 -72 42 -85 64 -86
144 0 83 24 127 120 218 39 36 78 79 88 94 9 16 33 53 52 82 l35 52 -21 23
c-17 18 -21 31 -16 55 5 24 3 32 -8 32 -8 0 -68 -36 -132 -80z"/>
<path d="M1601 6806 c-6 -7 -16 -83 -21 -172 -12 -180 -37 -316 -104 -551 -25
-89 -55 -210 -67 -269 l-22 -108 24 -251 c27 -292 32 -580 10 -665 -34 -134
-86 -192 -242 -270 -219 -110 -395 -150 -665 -150 -197 0 -285 -13 -397 -60
-72 -30 -128 -72 -110 -83 5 -3 67 0 138 8 246 25 633 40 724 27 133 -19 271
-84 271 -128 0 -49 -163 -192 -375 -329 -66 -42 -144 -93 -172 -112 -104 -70
-21 -69 142 2 106 46 150 59 230 70 126 17 307 84 445 165 47 27 88 50 92 50
4 0 58 32 120 70 62 39 135 77 163 85 27 7 118 16 200 20 312 13 676 83 842
161 89 43 83 68 -20 80 l-58 7 28 29 c27 28 27 30 10 43 -31 22 -223 53 -507
79 -85 8 -163 18 -172 21 -23 9 -23 32 2 225 44 339 15 614 -74 721 -46 54
-50 84 -36 295 12 184 9 264 -9 264 -15 0 -31 60 -31 110 0 68 -10 111 -29
118 -26 9 -31 23 -31 92 0 97 -12 104 -51 34 l-34 -59 -17 70 c-9 39 -17 89
-17 112 -1 59 -16 93 -41 93 -11 0 -20 -7 -20 -15 0 -38 -21 -7 -50 75 -35 98
-50 119 -69 96z"/>
<path d="M4305 3669 c-71 -33 -197 -90 -278 -124 -290 -124 -318 -151 -476
-461 -39 -77 -91 -161 -114 -187 -40 -45 -45 -48 -117 -58 -53 -7 -151 -7
-334 2 -319 14 -388 8 -502 -43 l-49 -22 70 -13 c39 -7 153 -17 255 -23 187
-9 327 -31 457 -71 89 -28 123 -46 123 -66 0 -9 -24 -73 -54 -142 -72 -171
-76 -183 -76 -267 0 -82 19 -144 119 -386 33 -81 74 -195 91 -255 65 -225 71
-243 80 -238 5 3 14 32 21 64 15 80 23 90 48 67 11 -10 27 -16 37 -14 33 6 37
61 24 314 -7 133 -9 251 -5 263 4 12 24 33 46 46 48 31 61 56 88 174 29 121
90 334 99 343 10 10 360 92 497 117 61 11 157 25 215 31 135 15 137 16 131 77
l-6 48 -135 1 c-110 1 -157 6 -255 28 -164 38 -245 64 -252 82 -3 8 8 41 25
72 17 32 41 96 53 143 31 120 66 179 179 303 62 68 100 118 100 131 0 12 13
39 30 61 62 83 36 83 -135 3z"/>
<path d="M8575 3238 c-312 -79 -824 -256 -997 -344 -111 -56 -197 -169 -184
-240 7 -33 3 -39 -57 -102 -82 -86 -97 -109 -97 -149 0 -40 26 -70 115 -131
138 -93 138 -181 1 -229 -75 -26 -550 -26 -644 0 -91 26 -119 24 -197 -16 -38
-19 -92 -38 -120 -41 -27 -3 -54 -11 -59 -16 -31 -31 73 -50 270 -50 164 0
189 -5 514 -109 255 -82 318 -98 427 -110 199 -21 394 26 963 236 118 44 256
92 305 107 104 32 127 48 119 83 -4 16 2 36 20 63 40 60 39 60 -288 9 -171
-26 -266 -28 -300 -6 -24 16 -26 22 -26 96 0 99 -15 146 -79 250 -58 95 -63
128 -30 194 29 58 195 221 242 238 28 10 37 19 37 35 0 14 12 31 29 44 20 14
31 31 33 52 3 26 13 37 63 67 75 45 82 75 20 78 -22 1 -58 -3 -80 -9z"/>
<path d="M5839 3149 c-7 -13 -18 -52 -26 -86 -15 -73 -51 -148 -164 -339 -154
-263 -160 -283 -164 -654 -3 -296 -12 -368 -52 -442 -66 -122 -233 -165 -602
-155 -156 4 -229 10 -301 26 -52 11 -118 21 -147 21 -58 0 -204 -42 -222 -64
-17 -21 23 -31 234 -61 233 -33 328 -60 453 -130 55 -31 129 -66 164 -78 107
-37 95 -60 -98 -188 -68 -45 -121 -86 -118 -91 20 -31 305 36 517 123 105 42
163 60 187 59 106 -8 407 -3 480 8 47 7 157 31 245 52 88 22 203 44 255 50 53
6 105 18 119 27 l25 16 -22 15 -23 15 32 33 33 34 -158 -7 c-146 -6 -398 10
-424 26 -12 7 -77 220 -97 316 -39 185 -29 394 31 655 25 107 38 189 41 266 7
140 -4 180 -55 201 l-35 14 6 82 7 81 -35 -34 c-19 -19 -38 -30 -42 -26 -4 4
-9 60 -11 124 -4 123 -12 150 -33 111z"/>
<path d="M9869 2919 c-30 -31 -113 -137 -185 -235 -249 -340 -274 -385 -274
-495 0 -66 10 -90 76 -188 24 -34 49 -81 56 -102 10 -36 9 -41 -11 -63 -44
-47 -86 -51 -511 -51 -349 0 -401 -2 -446 -17 -58 -20 -93 -51 -73 -64 7 -4
101 -11 209 -15 208 -8 260 -18 386 -70 107 -44 154 -81 154 -120 0 -27 -17
-49 -117 -148 -65 -65 -149 -145 -186 -179 -37 -34 -62 -62 -55 -62 33 1 190
41 253 65 93 35 227 107 355 191 130 86 144 91 360 145 160 40 186 44 300 44
l125 0 3 32 c4 45 -24 57 -203 83 -161 23 -235 47 -235 77 0 10 30 68 65 128
74 123 105 211 105 291 0 62 -15 103 -59 164 -48 66 -44 115 20 235 28 54 48
104 45 112 -5 12 -16 14 -56 9 -41 -5 -52 -4 -56 9 -4 8 -1 66 6 128 18 160
15 165 -51 96z"/>
<path d="M12425 2288 c-166 -86 -513 -314 -547 -360 -13 -16 -60 -70 -105
-118 -46 -49 -83 -97 -83 -107 0 -10 11 -36 25 -58 45 -74 43 -75 -107 -75
-181 0 -342 -16 -412 -39 -62 -22 -136 -61 -136 -72 0 -3 107 -9 238 -12 263
-5 264 -5 387 -79 91 -54 147 -68 274 -68 102 0 167 15 276 65 44 21 188 84
320 142 132 57 241 106 244 109 7 7 -32 45 -63 61 -35 18 -76 14 -224 -22
-168 -41 -187 -34 -158 52 25 73 21 109 -17 156 -19 23 -36 49 -39 58 -10 26
16 70 107 184 90 114 130 179 120 195 -10 16 -57 11 -100 -12z"/>
<path d="M11145 2161 c-11 -3 -47 -20 -80 -37 -33 -18 -141 -64 -240 -104
-242 -98 -311 -133 -335 -173 -27 -43 -46 -108 -75 -257 -43 -219 -82 -297
-168 -342 -59 -31 -258 -36 -490 -13 -138 14 -185 15 -226 6 -106 -23 -201
-77 -169 -98 7 -4 97 -9 200 -10 156 -1 201 -5 265 -23 116 -31 215 -96 249
-162 20 -38 12 -57 -48 -126 -28 -31 -64 -86 -81 -120 -28 -59 -29 -70 -24
-140 9 -103 93 -509 112 -539 29 -43 45 -27 56 56 6 39 14 60 29 71 13 10 25
34 30 62 5 25 20 62 34 83 15 21 26 52 26 69 0 57 42 162 135 342 l92 179 129
16 c141 17 233 41 365 93 79 31 115 41 224 63 49 10 60 38 20 53 -24 9 -27 15
-21 40 4 22 1 32 -12 38 -9 5 -84 13 -165 16 -82 4 -155 10 -163 13 -19 7 -13
29 37 125 46 91 49 133 19 262 -22 97 -19 118 37 203 44 67 157 173 211 197
31 14 42 25 42 42 0 15 12 30 35 44 42 26 46 56 9 70 -28 11 -30 11 -59 1z"/>
</g>
</svg>
